# xmcd
#
# Track frame offsets:
#	182
#	10585
#	26705
#	39140
#	54782
#	73517
#	89772
#	104482
#	119755
#	131995
#
# Disc length: 1931 seconds
#
# Revision: 2
# Processed by: cddbd v1.5.1PL0 Copyright (c) Steve Scherf et al.
# Submitted via: dBpowerAMP V4.0
#
DISCID=8507890a
DTITLE=Txomin Artola - Olaxta
DYEAR=1975
DGENRE=Euskal Musika
TTITLE0=Sarrera
TTITLE1=Arrantzale erri
TTITLE2=Goazen itxasora
TTITLE3=Txakurren partia
TTITLE4=Tostartekoaren eskaria
TTITLE5=Errian
TTITLE6=Ondorenak
TTITLE7=Alargunaren Negarra
TTITLE8=Aitona brontze
TTITLE9=Itxasoan
EXTD=Euskal Herria ASKATU!
EXTT0=
EXTT1=
EXTT2=
EXTT3=
EXTT4=
EXTT5=
EXTT6=
EXTT7=
EXTT8=
EXTT9=
PLAYORDER=
